<svg xmlns="http://www.w3.org/2000/svg" id="export" class="canvas" preserveAspectRatio="xMidYMid meet" style="" width="2080" height="182"><rect id="background" fill="#fff" pointer-events="all" width="2080" height="182"/><g id="origin" transform="translate(8.25, 8.25) scale(1)"><g id="clusters" class="clusters"/><g id="edge-paths" class="edge-paths"><defs><marker id="arrowhead" viewBox="0 0 10 10" refX="9" refY="5" markerUnits="strokeWidth" markerWidth="8" markerHeight="6" orient="auto" style="fill: rgb(0, 0, 0);"><path d="M 0 0 L 10 5 L 0 10 L 4 5 z" style="stroke-width: 1;"/></marker><marker id="arrowhead-select" viewBox="0 0 10 10" refX="9" refY="5" markerUnits="strokeWidth" markerWidth="8" markerHeight="6" orient="auto" style="fill: rgb(238, 0, 0);"><path d="M 0 0 L 10 5 L 0 10 L 4 5 z" style="stroke-width: 1;"/></marker><marker id="arrowhead-hover" viewBox="0 0 10 10" refX="9" refY="5" markerUnits="strokeWidth" markerWidth="8" markerHeight="6" orient="auto"><path d="M 0 0 L 10 5 L 0 10 L 4 5 z" style="stroke-width: 1;"/></marker></defs><path id="edge-input" class="edge-path" d="M40.59375,82.5L42.260416666666664,82.5C43.927083333333336,82.5,47.260416666666664,82.5,52.6328125,82.5C58.005208333333336,82.5,65.41666666666667,82.5,72.828125,82.5C80.23958333333333,82.5,87.65104166666667,82.5,93.0234375,82.5C98.39583333333333,82.5,101.72916666666667,82.5,103.39583333333333,82.5L105.0625,82.5" style="stroke: rgb(0, 0, 0); stroke-width: 1px; fill: none; marker-end: url(&quot;#arrowhead&quot;);"/><path class="edge-path-hit-test" d="M40.59375,82.5L42.260416666666664,82.5C43.927083333333336,82.5,47.260416666666664,82.5,52.6328125,82.5C58.005208333333336,82.5,65.41666666666667,82.5,72.828125,82.5C80.23958333333333,82.5,87.65104166666667,82.5,93.0234375,82.5C98.39583333333333,82.5,101.72916666666667,82.5,103.39583333333333,82.5L105.0625,82.5" style="pointer-events: stroke; stroke-width: 0.5em; fill: none; stroke: rgb(0, 0, 0); stroke-opacity: 0.001;"/><path id="edge-Convolution-1_input" class="edge-path" d="M224.921875,82.5L234.70052083333334,82.5C244.47916666666666,82.5,264.0364583333333,82.5,283.59375,82.5C303.1510416666667,82.5,322.7083333333333,82.5,332.4869791666667,82.5L342.265625,82.5" style="stroke: rgb(0, 0, 0); stroke-width: 1px; fill: none; marker-end: url(&quot;#arrowhead&quot;);"/><path class="edge-path-hit-test" d="M224.921875,82.5L234.70052083333334,82.5C244.47916666666666,82.5,264.0364583333333,82.5,283.59375,82.5C303.1510416666667,82.5,322.7083333333333,82.5,332.4869791666667,82.5L342.265625,82.5" style="pointer-events: stroke; stroke-width: 0.5em; fill: none; stroke: rgb(0, 0, 0); stroke-opacity: 0.001;"/><path id="edge-Convolution-1" class="edge-path" d="M521.46875,82.5L528.7135416666666,82.5C535.9583333333334,82.5,550.4479166666666,82.5,564.9375,82.5C579.4270833333334,82.5,593.9166666666666,82.5,601.1614583333334,82.5L608.40625,82.5" style="stroke: rgb(0, 0, 0); stroke-width: 1px; fill: none; marker-end: url(&quot;#arrowhead&quot;);"/><path class="edge-path-hit-test" d="M521.46875,82.5L528.7135416666666,82.5C535.9583333333334,82.5,550.4479166666666,82.5,564.9375,82.5C579.4270833333334,82.5,593.9166666666666,82.5,601.1614583333334,82.5L608.40625,82.5" style="pointer-events: stroke; stroke-width: 0.5em; fill: none; stroke: rgb(0, 0, 0); stroke-opacity: 0.001;"/><path id="edge-Pooling-1" class="edge-path" d="M690.125,82.5L695.5729166666666,82.5C701.0208333333334,82.5,711.9166666666666,82.5,722.8125,82.5C733.7083333333334,82.5,744.6041666666666,82.5,750.0520833333334,82.5L755.5,82.5" style="stroke: rgb(0, 0, 0); stroke-width: 1px; fill: none; marker-end: url(&quot;#arrowhead&quot;);"/><path class="edge-path-hit-test" d="M690.125,82.5L695.5729166666666,82.5C701.0208333333334,82.5,711.9166666666666,82.5,722.8125,82.5C733.7083333333334,82.5,744.6041666666666,82.5,750.0520833333334,82.5L755.5,82.5" style="pointer-events: stroke; stroke-width: 0.5em; fill: none; stroke: rgb(0, 0, 0); stroke-opacity: 0.001;"/><path id="edge-Convolution-2" class="edge-path" d="M866.703125,82.5L874.0638020833334,82.5C881.4244791666666,82.5,896.1458333333334,82.5,910.8671875,82.5C925.5885416666666,82.5,940.3098958333334,82.5,947.6705729166666,82.5L955.03125,82.5" style="stroke: rgb(0, 0, 0); stroke-width: 1px; fill: none; marker-end: url(&quot;#arrowhead&quot;);"/><path class="edge-path-hit-test" d="M866.703125,82.5L874.0638020833334,82.5C881.4244791666666,82.5,896.1458333333334,82.5,910.8671875,82.5C925.5885416666666,82.5,940.3098958333334,82.5,947.6705729166666,82.5L955.03125,82.5" style="pointer-events: stroke; stroke-width: 0.5em; fill: none; stroke: rgb(0, 0, 0); stroke-opacity: 0.001;"/><path id="edge-Pooling-2" class="edge-path" d="M1036.75,82.5L1042.3138020833333,82.5C1047.8776041666667,82.5,1059.0052083333333,82.5,1070.1328125,82.5C1081.2604166666667,82.5,1092.3880208333333,82.5,1097.9518229166667,82.5L1103.515625,82.5" style="stroke: rgb(0, 0, 0); stroke-width: 1px; fill: none; marker-end: url(&quot;#arrowhead&quot;);"/><path class="edge-path-hit-test" d="M1036.75,82.5L1042.3138020833333,82.5C1047.8776041666667,82.5,1059.0052083333333,82.5,1070.1328125,82.5C1081.2604166666667,82.5,1092.3880208333333,82.5,1097.9518229166667,82.5L1103.515625,82.5" style="pointer-events: stroke; stroke-width: 0.5em; fill: none; stroke: rgb(0, 0, 0); stroke-opacity: 0.001;"/><path id="edge-Convolution-3" class="edge-path" d="M1219.15625,82.5L1226.5364583333333,82.5C1233.9166666666667,82.5,1248.6770833333333,82.5,1263.4375,82.5C1278.1979166666667,82.5,1292.9583333333333,82.5,1300.3385416666667,82.5L1307.71875,82.5" style="stroke: rgb(0, 0, 0); stroke-width: 1px; fill: none; marker-end: url(&quot;#arrowhead&quot;);"/><path class="edge-path-hit-test" d="M1219.15625,82.5L1226.5364583333333,82.5C1233.9166666666667,82.5,1248.6770833333333,82.5,1263.4375,82.5C1278.1979166666667,82.5,1292.9583333333333,82.5,1300.3385416666667,82.5L1307.71875,82.5" style="pointer-events: stroke; stroke-width: 0.5em; fill: none; stroke: rgb(0, 0, 0); stroke-opacity: 0.001;"/><path id="edge-Pooling-3" class="edge-path" d="M1389.4375,82.5L1395.0208333333333,82.5C1400.6041666666667,82.5,1411.7708333333333,82.5,1422.9375,82.5C1434.1041666666667,82.5,1445.2708333333333,82.5,1450.8541666666667,82.5L1456.4375,82.5" style="stroke: rgb(0, 0, 0); stroke-width: 1px; fill: none; marker-end: url(&quot;#arrowhead&quot;);"/><path class="edge-path-hit-test" d="M1389.4375,82.5L1395.0208333333333,82.5C1400.6041666666667,82.5,1411.7708333333333,82.5,1422.9375,82.5C1434.1041666666667,82.5,1445.2708333333333,82.5,1450.8541666666667,82.5L1456.4375,82.5" style="pointer-events: stroke; stroke-width: 0.5em; fill: none; stroke: rgb(0, 0, 0); stroke-opacity: 0.001;"/><path id="edge-flatten" class="edge-path" d="M1504.34375,82.5L1508.61328125,82.5C1512.8828125,82.5,1521.421875,82.5,1529.9609375,82.5C1538.5,82.5,1547.0390625,82.5,1551.30859375,82.5L1555.578125,82.5" style="stroke: rgb(0, 0, 0); stroke-width: 1px; fill: none; marker-end: url(&quot;#arrowhead&quot;);"/><path class="edge-path-hit-test" d="M1504.34375,82.5L1508.61328125,82.5C1512.8828125,82.5,1521.421875,82.5,1529.9609375,82.5C1538.5,82.5,1547.0390625,82.5,1551.30859375,82.5L1555.578125,82.5" style="pointer-events: stroke; stroke-width: 0.5em; fill: none; stroke: rgb(0, 0, 0); stroke-opacity: 0.001;"/><path id="edge-dense" class="edge-path" d="M1663.953125,82.5L1668.0559895833333,82.5C1672.1588541666667,82.5,1680.3645833333333,82.5,1688.5703125,82.5C1696.7760416666667,82.5,1704.9817708333333,82.5,1709.0846354166667,82.5L1713.1875,82.5" style="stroke: rgb(0, 0, 0); stroke-width: 1px; fill: none; marker-end: url(&quot;#arrowhead&quot;);"/><path class="edge-path-hit-test" d="M1663.953125,82.5L1668.0559895833333,82.5C1672.1588541666667,82.5,1680.3645833333333,82.5,1688.5703125,82.5C1696.7760416666667,82.5,1704.9817708333333,82.5,1709.0846354166667,82.5L1713.1875,82.5" style="pointer-events: stroke; stroke-width: 0.5em; fill: none; stroke: rgb(0, 0, 0); stroke-opacity: 0.001;"/><path id="edge-dropout" class="edge-path" d="M1788.8125,82.5L1793.6471354166667,82.5C1798.4817708333333,82.5,1808.1510416666667,82.5,1817.8203125,82.5C1827.4895833333333,82.5,1837.1588541666667,82.5,1841.9934895833333,82.5L1846.828125,82.5" style="stroke: rgb(0, 0, 0); stroke-width: 1px; fill: none; marker-end: url(&quot;#arrowhead&quot;);"/><path class="edge-path-hit-test" d="M1788.8125,82.5L1793.6471354166667,82.5C1798.4817708333333,82.5,1808.1510416666667,82.5,1817.8203125,82.5C1827.4895833333333,82.5,1837.1588541666667,82.5,1841.9934895833333,82.5L1846.828125,82.5" style="pointer-events: stroke; stroke-width: 0.5em; fill: none; stroke: rgb(0, 0, 0); stroke-opacity: 0.001;"/><path id="edge-dense_1" class="edge-path" d="M1948.296875,82.5L1953.1822916666667,82.5C1958.0677083333333,82.5,1967.8385416666667,82.5,1977.609375,82.5C1987.3802083333333,82.5,1997.1510416666667,82.5,2002.0364583333333,82.5L2006.921875,82.5" style="stroke: rgb(0, 0, 0); stroke-width: 1px; fill: none; marker-end: url(&quot;#arrowhead&quot;);"/><path class="edge-path-hit-test" d="M1948.296875,82.5L1953.1822916666667,82.5C1958.0677083333333,82.5,1967.8385416666667,82.5,1977.609375,82.5C1987.3802083333333,82.5,1997.1510416666667,82.5,2002.0364583333333,82.5L2006.921875,82.5" style="pointer-events: stroke; stroke-width: 0.5em; fill: none; stroke: rgb(0, 0, 0); stroke-opacity: 0.001;"/></g><g id="edge-labels" class="edge-labels"><text class="edge-label" id="edge-label-edge-input" transform="translate(60.59375,92.5)" style="opacity: 1; font-family: -apple-system, BlinkMacSystemFont, &quot;Segoe WPC&quot;, &quot;Segoe UI&quot;, Ubuntu, &quot;Droid Sans&quot;, sans-serif, &quot;PingFang SC&quot;; font-size: 10px;"><tspan xml:space="preserve" dy="1em" x="1">input</tspan></text><text class="edge-label" id="edge-label-edge-Convolution-1_input" transform="translate(234.921875,92.5)" style="opacity: 1; font-family: -apple-system, BlinkMacSystemFont, &quot;Segoe WPC&quot;, &quot;Segoe UI&quot;, Ubuntu, &quot;Droid Sans&quot;, sans-serif, &quot;PingFang SC&quot;; font-size: 10px;"><tspan xml:space="preserve" dy="1em" x="1">Convolution-1_input</tspan></text><text class="edge-label" id="edge-label-edge-Convolution-1" transform="translate(531.46875,92.5)" style="opacity: 1; font-family: -apple-system, BlinkMacSystemFont, &quot;Segoe WPC&quot;, &quot;Segoe UI&quot;, Ubuntu, &quot;Droid Sans&quot;, sans-serif, &quot;PingFang SC&quot;; font-size: 10px;"><tspan xml:space="preserve" dy="1em" x="1">Convolution-1</tspan></text><text class="edge-label" id="edge-label-edge-Pooling-1" transform="translate(700.125,92.5)" style="opacity: 1; font-family: -apple-system, BlinkMacSystemFont, &quot;Segoe WPC&quot;, &quot;Segoe UI&quot;, Ubuntu, &quot;Droid Sans&quot;, sans-serif, &quot;PingFang SC&quot;; font-size: 10px;"><tspan xml:space="preserve" dy="1em" x="1">Pooling-1</tspan></text><text class="edge-label" id="edge-label-edge-Convolution-2" transform="translate(876.703125,92.5)" style="opacity: 1; font-family: -apple-system, BlinkMacSystemFont, &quot;Segoe WPC&quot;, &quot;Segoe UI&quot;, Ubuntu, &quot;Droid Sans&quot;, sans-serif, &quot;PingFang SC&quot;; font-size: 10px;"><tspan xml:space="preserve" dy="1em" x="1">Convolution-2</tspan></text><text class="edge-label" id="edge-label-edge-Pooling-2" transform="translate(1046.75,92.5)" style="opacity: 1; font-family: -apple-system, BlinkMacSystemFont, &quot;Segoe WPC&quot;, &quot;Segoe UI&quot;, Ubuntu, &quot;Droid Sans&quot;, sans-serif, &quot;PingFang SC&quot;; font-size: 10px;"><tspan xml:space="preserve" dy="1em" x="1">Pooling-2</tspan></text><text class="edge-label" id="edge-label-edge-Convolution-3" transform="translate(1229.15625,92.5)" style="opacity: 1; font-family: -apple-system, BlinkMacSystemFont, &quot;Segoe WPC&quot;, &quot;Segoe UI&quot;, Ubuntu, &quot;Droid Sans&quot;, sans-serif, &quot;PingFang SC&quot;; font-size: 10px;"><tspan xml:space="preserve" dy="1em" x="1">Convolution-3</tspan></text><text class="edge-label" id="edge-label-edge-Pooling-3" transform="translate(1399.4375,92.5)" style="opacity: 1; font-family: -apple-system, BlinkMacSystemFont, &quot;Segoe WPC&quot;, &quot;Segoe UI&quot;, Ubuntu, &quot;Droid Sans&quot;, sans-serif, &quot;PingFang SC&quot;; font-size: 10px;"><tspan xml:space="preserve" dy="1em" x="1">Pooling-3</tspan></text><text class="edge-label" id="edge-label-edge-flatten" transform="translate(1514.34375,92.5)" style="opacity: 1; font-family: -apple-system, BlinkMacSystemFont, &quot;Segoe WPC&quot;, &quot;Segoe UI&quot;, Ubuntu, &quot;Droid Sans&quot;, sans-serif, &quot;PingFang SC&quot;; font-size: 10px;"><tspan xml:space="preserve" dy="1em" x="1">flatten</tspan></text><text class="edge-label" id="edge-label-edge-dense" transform="translate(1673.953125,92.5)" style="opacity: 1; font-family: -apple-system, BlinkMacSystemFont, &quot;Segoe WPC&quot;, &quot;Segoe UI&quot;, Ubuntu, &quot;Droid Sans&quot;, sans-serif, &quot;PingFang SC&quot;; font-size: 10px;"><tspan xml:space="preserve" dy="1em" x="1">dense</tspan></text><text class="edge-label" id="edge-label-edge-dropout" transform="translate(1798.8125,92.5)" style="opacity: 1; font-family: -apple-system, BlinkMacSystemFont, &quot;Segoe WPC&quot;, &quot;Segoe UI&quot;, Ubuntu, &quot;Droid Sans&quot;, sans-serif, &quot;PingFang SC&quot;; font-size: 10px;"><tspan xml:space="preserve" dy="1em" x="1">dropout</tspan></text><text class="edge-label" id="edge-label-edge-dense_1" transform="translate(1958.296875,92.5)" style="opacity: 1; font-family: -apple-system, BlinkMacSystemFont, &quot;Segoe WPC&quot;, &quot;Segoe UI&quot;, Ubuntu, &quot;Droid Sans&quot;, sans-serif, &quot;PingFang SC&quot;; font-size: 10px;"><tspan xml:space="preserve" dy="1em" x="1">dense_1</tspan></text></g><g id="nodes" class="nodes"><g id="input-name-input" class="node graph-input" transform="translate(0,72)" style="opacity: 1;"><g class="node-item graph-item-input" transform="translate(0,0)"><path d="M5,0h30.59375a5,5 0 0 1 5,5v11a5,5 0 0 1 -5,5h-30.59375a5,5 0 0 1 -5,-5v-11a5,5 0 0 1 5,-5z" style="stroke: rgb(0, 0, 0); fill: rgb(238, 238, 238); stroke-width: 0;"/><text x="6" y="15" style="font-family: -apple-system, BlinkMacSystemFont, &quot;Segoe WPC&quot;, &quot;Segoe UI&quot;, Ubuntu, &quot;Droid Sans&quot;, sans-serif, &quot;PingFang SC&quot;; font-size: 11px; text-rendering: geometricprecision;">input</text><title>float32[?,224,224,3]</title></g><path class="node border" d="M5,0h30.59375a5,5 0 0 1 5,5v11a5,5 0 0 1 -5,5h-30.59375a5,5 0 0 1 -5,-5v-11a5,5 0 0 1 5,-5z" style="stroke: rgb(51, 51, 51); fill: none; stroke-width: 1px;"/></g><g id="node-name-Convolution-1_input" class="node graph-node" transform="translate(105.0625,56)" style="opacity: 1;"><g class="node-item node-item-type node-item-type-data" transform="translate(0,0)"><path d="M5,0h109.859375a5,5 0 0 1 5,5v16a0,0 0 0 1 0,0h-119.859375a0,0 0 0 1 0,0v-16a5,5 0 0 1 5,-5z" style="stroke: rgb(0, 0, 0); fill: rgb(85, 85, 85); stroke-width: 0;"/><text x="6" y="15" style="font-family: -apple-system, BlinkMacSystemFont, &quot;Segoe WPC&quot;, &quot;Segoe UI&quot;, Ubuntu, &quot;Droid Sans&quot;, sans-serif, &quot;PingFang SC&quot;; font-size: 11px; text-rendering: geometricprecision; fill: rgb(255, 255, 255);">Convolution-1_input</text><title>InputLayer</title></g><g class="node-attribute" transform="translate(0,21)"><path d="M0,0h119.859375a0,0 0 0 1 0,0v27a5,5 0 0 1 -5,5h-109.859375a5,5 0 0 1 -5,-5v-27a0,0 0 0 1 0,0z" style="stroke: rgb(0, 0, 0); fill: rgb(255, 255, 255); stroke-width: 0;"/><text xml:space="preserve" x="6" y="13" style="font-family: -apple-system, BlinkMacSystemFont, &quot;Segoe WPC&quot;, &quot;Segoe UI&quot;, Ubuntu, &quot;Droid Sans&quot;, sans-serif, &quot;PingFang SC&quot;; font-size: 9px; font-weight: normal; text-rendering: geometricprecision;"><tspan>ragged</tspan><tspan> = false</tspan></text><text xml:space="preserve" x="6" y="26" style="font-family: -apple-system, BlinkMacSystemFont, &quot;Segoe WPC&quot;, &quot;Segoe UI&quot;, Ubuntu, &quot;Droid Sans&quot;, sans-serif, &quot;PingFang SC&quot;; font-size: 9px; font-weight: normal; text-rendering: geometricprecision;"><tspan>sparse</tspan><tspan> = false</tspan></text><line class="node" x1="0" x2="119.859375" y1="0" y2="0" style="stroke: rgb(51, 51, 51); fill: none; stroke-width: 1px;"/></g><path class="node border" d="M5,0h109.859375a5,5 0 0 1 5,5v43a5,5 0 0 1 -5,5h-109.859375a5,5 0 0 1 -5,-5v-43a5,5 0 0 1 5,-5z" style="stroke: rgb(51, 51, 51); fill: none; stroke-width: 1px;"/></g><g id="node-name-Convolution-1" class="node graph-node" transform="translate(342.265625,0)" style="opacity: 1;"><g class="node-item node-item-type node-item-type-layer" transform="translate(0,0)"><path d="M5,0h169.203125a5,5 0 0 1 5,5v16a0,0 0 0 1 0,0h-179.203125a0,0 0 0 1 0,0v-16a5,5 0 0 1 5,-5z" style="stroke: rgb(0, 0, 0); fill: rgb(51, 85, 136); stroke-width: 0;"/><text x="6" y="15" style="font-family: -apple-system, BlinkMacSystemFont, &quot;Segoe WPC&quot;, &quot;Segoe UI&quot;, Ubuntu, &quot;Droid Sans&quot;, sans-serif, &quot;PingFang SC&quot;; font-size: 11px; text-rendering: geometricprecision; fill: rgb(255, 255, 255);">Convolution-1</text><title>Conv2D</title></g><g class="node-attribute" transform="translate(0,21)"><path d="M0,0h179.203125a0,0 0 0 1 0,0v123a0,0 0 0 1 0,0h-179.203125a0,0 0 0 1 0,0v-123a0,0 0 0 1 0,0z" style="stroke: rgb(0, 0, 0); fill: rgb(255, 255, 255); stroke-width: 0;"/><text id="initializer-Convolution-1/kernel:0" xml:space="preserve" x="6" y="13" style="font-family: -apple-system, BlinkMacSystemFont, &quot;Segoe WPC&quot;, &quot;Segoe UI&quot;, Ubuntu, &quot;Droid Sans&quot;, sans-serif, &quot;PingFang SC&quot;; font-size: 9px; font-weight: normal; text-rendering: geometricprecision;"><title>float32[2,2,3,32]</title><tspan style="font-weight: bold;">kernel</tspan><tspan>〈2×2×3×32〉</tspan></text><text id="initializer-Convolution-1/bias:0" xml:space="preserve" x="6" y="26" style="font-family: -apple-system, BlinkMacSystemFont, &quot;Segoe WPC&quot;, &quot;Segoe UI&quot;, Ubuntu, &quot;Droid Sans&quot;, sans-serif, &quot;PingFang SC&quot;; font-size: 9px; font-weight: normal; text-rendering: geometricprecision;"><title>float32[32]</title><tspan style="font-weight: bold;">bias</tspan><tspan>〈32〉</tspan></text><text xml:space="preserve" x="6" y="39" style="font-family: -apple-system, BlinkMacSystemFont, &quot;Segoe WPC&quot;, &quot;Segoe UI&quot;, Ubuntu, &quot;Droid Sans&quot;, sans-serif, &quot;PingFang SC&quot;; font-size: 9px; font-weight: normal; text-rendering: geometricprecision;"><tspan>activation</tspan><tspan> = relu</tspan></text><text xml:space="preserve" x="6" y="52" style="font-family: -apple-system, BlinkMacSystemFont, &quot;Segoe WPC&quot;, &quot;Segoe UI&quot;, Ubuntu, &quot;Droid Sans&quot;, sans-serif, &quot;PingFang SC&quot;; font-size: 9px; font-weight: normal; text-rendering: geometricprecision;"><tspan>batch_input_shape</tspan><tspan> = null, 224, 224, 3</tspan></text><text xml:space="preserve" x="6" y="65" style="font-family: -apple-system, BlinkMacSystemFont, &quot;Segoe WPC&quot;, &quot;Segoe UI&quot;, Ubuntu, &quot;Droid Sans&quot;, sans-serif, &quot;PingFang SC&quot;; font-size: 9px; font-weight: normal; text-rendering: geometricprecision;"><tspan>dilation_rate</tspan><tspan> = 1, 1</tspan></text><text xml:space="preserve" x="6" y="78" style="font-family: -apple-system, BlinkMacSystemFont, &quot;Segoe WPC&quot;, &quot;Segoe UI&quot;, Ubuntu, &quot;Droid Sans&quot;, sans-serif, &quot;PingFang SC&quot;; font-size: 9px; font-weight: normal; text-rendering: geometricprecision;"><tspan>filters</tspan><tspan> = 32</tspan></text><text xml:space="preserve" x="6" y="91" style="font-family: -apple-system, BlinkMacSystemFont, &quot;Segoe WPC&quot;, &quot;Segoe UI&quot;, Ubuntu, &quot;Droid Sans&quot;, sans-serif, &quot;PingFang SC&quot;; font-size: 9px; font-weight: normal; text-rendering: geometricprecision;"><tspan>groups</tspan><tspan> = 1</tspan></text><text xml:space="preserve" x="6" y="104" style="font-family: -apple-system, BlinkMacSystemFont, &quot;Segoe WPC&quot;, &quot;Segoe UI&quot;, Ubuntu, &quot;Droid Sans&quot;, sans-serif, &quot;PingFang SC&quot;; font-size: 9px; font-weight: normal; text-rendering: geometricprecision;"><tspan>kernel_size</tspan><tspan> = 2, 2</tspan></text><text xml:space="preserve" x="6" y="117" style="font-family: -apple-system, BlinkMacSystemFont, &quot;Segoe WPC&quot;, &quot;Segoe UI&quot;, Ubuntu, &quot;Droid Sans&quot;, sans-serif, &quot;PingFang SC&quot;; font-size: 9px; font-weight: normal; text-rendering: geometricprecision;"><tspan>strides</tspan><tspan> = 1, 1</tspan></text><line class="node" x1="0" x2="179.203125" y1="0" y2="0" style="stroke: rgb(51, 51, 51); fill: none; stroke-width: 1px;"/></g><g class="node-item node-item-type node-item-type-activation" transform="translate(0,144)"><path d="M0,0h179.203125a0,0 0 0 1 0,0v16a5,5 0 0 1 -5,5h-169.203125a5,5 0 0 1 -5,-5v-16a0,0 0 0 1 0,0z" style="stroke: rgb(0, 0, 0); fill: rgb(112, 41, 33); stroke-width: 0;"/><text x="6" y="15" style="font-family: -apple-system, BlinkMacSystemFont, &quot;Segoe WPC&quot;, &quot;Segoe UI&quot;, Ubuntu, &quot;Droid Sans&quot;, sans-serif, &quot;PingFang SC&quot;; font-size: 11px; text-rendering: geometricprecision; fill: rgb(255, 255, 255);">ReLU</text></g><line class="node" x1="0" x2="179.203125" y1="144" y2="144" style="stroke: rgb(51, 51, 51); fill: none; stroke-width: 1px;"/><path class="node border" d="M5,0h169.203125a5,5 0 0 1 5,5v155a5,5 0 0 1 -5,5h-169.203125a5,5 0 0 1 -5,-5v-155a5,5 0 0 1 5,-5z" style="stroke: rgb(51, 51, 51); fill: none; stroke-width: 1px;"/></g><g id="node-name-Pooling-1" class="node graph-node" transform="translate(608.40625,55.9794921875)" style="opacity: 1;"><g class="node-item node-item-type node-item-type-pool" transform="translate(0,0)"><path d="M5,0h71.71875a5,5 0 0 1 5,5v16.041015625a0,0 0 0 1 0,0h-81.71875a0,0 0 0 1 0,0v-16.041015625a5,5 0 0 1 5,-5z" style="stroke: rgb(0, 0, 0); fill: rgb(51, 85, 51); stroke-width: 0;"/><text x="6" y="15" style="font-family: -apple-system, BlinkMacSystemFont, &quot;Segoe WPC&quot;, &quot;Segoe UI&quot;, Ubuntu, &quot;Droid Sans&quot;, sans-serif, &quot;PingFang SC&quot;; font-size: 11px; text-rendering: geometricprecision; fill: rgb(255, 255, 255);">Pooling-1</text><title>MaxPooling2D</title></g><g class="node-attribute" transform="translate(0,21.041015625)"><path d="M0,0h81.71875a0,0 0 0 1 0,0v27a5,5 0 0 1 -5,5h-71.71875a5,5 0 0 1 -5,-5v-27a0,0 0 0 1 0,0z" style="stroke: rgb(0, 0, 0); fill: rgb(255, 255, 255); stroke-width: 0;"/><text xml:space="preserve" x="6" y="13" style="font-family: -apple-system, BlinkMacSystemFont, &quot;Segoe WPC&quot;, &quot;Segoe UI&quot;, Ubuntu, &quot;Droid Sans&quot;, sans-serif, &quot;PingFang SC&quot;; font-size: 9px; font-weight: normal; text-rendering: geometricprecision;"><tspan>pool_size</tspan><tspan> = 2, 2</tspan></text><text xml:space="preserve" x="6" y="26" style="font-family: -apple-system, BlinkMacSystemFont, &quot;Segoe WPC&quot;, &quot;Segoe UI&quot;, Ubuntu, &quot;Droid Sans&quot;, sans-serif, &quot;PingFang SC&quot;; font-size: 9px; font-weight: normal; text-rendering: geometricprecision;"><tspan>strides</tspan><tspan> = 2, 2</tspan></text><line class="node" x1="0" x2="81.71875" y1="0" y2="0" style="stroke: rgb(51, 51, 51); fill: none; stroke-width: 1px;"/></g><path class="node border" d="M5,0h71.71875a5,5 0 0 1 5,5v43.041015625a5,5 0 0 1 -5,5h-71.71875a5,5 0 0 1 -5,-5v-43.041015625a5,5 0 0 1 5,-5z" style="stroke: rgb(51, 51, 51); fill: none; stroke-width: 1px;"/></g><g id="node-name-Convolution-2" class="node graph-node" transform="translate(755.5,6.5)" style="opacity: 1;"><g class="node-item node-item-type node-item-type-layer" transform="translate(0,0)"><path d="M5,0h101.203125a5,5 0 0 1 5,5v16a0,0 0 0 1 0,0h-111.203125a0,0 0 0 1 0,0v-16a5,5 0 0 1 5,-5z" style="stroke: rgb(0, 0, 0); fill: rgb(51, 85, 136); stroke-width: 0;"/><text x="6" y="15" style="font-family: -apple-system, BlinkMacSystemFont, &quot;Segoe WPC&quot;, &quot;Segoe UI&quot;, Ubuntu, &quot;Droid Sans&quot;, sans-serif, &quot;PingFang SC&quot;; font-size: 11px; text-rendering: geometricprecision; fill: rgb(255, 255, 255);">Convolution-2</text><title>Conv2D</title></g><g class="node-attribute" transform="translate(0,21)"><path d="M0,0h111.203125a0,0 0 0 1 0,0v110a0,0 0 0 1 0,0h-111.203125a0,0 0 0 1 0,0v-110a0,0 0 0 1 0,0z" style="stroke: rgb(0, 0, 0); fill: rgb(255, 255, 255); stroke-width: 0;"/><text id="initializer-Convolution-2/kernel:0" xml:space="preserve" x="6" y="13" style="font-family: -apple-system, BlinkMacSystemFont, &quot;Segoe WPC&quot;, &quot;Segoe UI&quot;, Ubuntu, &quot;Droid Sans&quot;, sans-serif, &quot;PingFang SC&quot;; font-size: 9px; font-weight: normal; text-rendering: geometricprecision;"><title>float32[2,2,32,64]</title><tspan style="font-weight: bold;">kernel</tspan><tspan>〈2×2×32×64〉</tspan></text><text id="initializer-Convolution-2/bias:0" xml:space="preserve" x="6" y="26" style="font-family: -apple-system, BlinkMacSystemFont, &quot;Segoe WPC&quot;, &quot;Segoe UI&quot;, Ubuntu, &quot;Droid Sans&quot;, sans-serif, &quot;PingFang SC&quot;; font-size: 9px; font-weight: normal; text-rendering: geometricprecision;"><title>float32[64]</title><tspan style="font-weight: bold;">bias</tspan><tspan>〈64〉</tspan></text><text xml:space="preserve" x="6" y="39" style="font-family: -apple-system, BlinkMacSystemFont, &quot;Segoe WPC&quot;, &quot;Segoe UI&quot;, Ubuntu, &quot;Droid Sans&quot;, sans-serif, &quot;PingFang SC&quot;; font-size: 9px; font-weight: normal; text-rendering: geometricprecision;"><tspan>activation</tspan><tspan> = relu</tspan></text><text xml:space="preserve" x="6" y="52" style="font-family: -apple-system, BlinkMacSystemFont, &quot;Segoe WPC&quot;, &quot;Segoe UI&quot;, Ubuntu, &quot;Droid Sans&quot;, sans-serif, &quot;PingFang SC&quot;; font-size: 9px; font-weight: normal; text-rendering: geometricprecision;"><tspan>dilation_rate</tspan><tspan> = 1, 1</tspan></text><text xml:space="preserve" x="6" y="65" style="font-family: -apple-system, BlinkMacSystemFont, &quot;Segoe WPC&quot;, &quot;Segoe UI&quot;, Ubuntu, &quot;Droid Sans&quot;, sans-serif, &quot;PingFang SC&quot;; font-size: 9px; font-weight: normal; text-rendering: geometricprecision;"><tspan>filters</tspan><tspan> = 64</tspan></text><text xml:space="preserve" x="6" y="78" style="font-family: -apple-system, BlinkMacSystemFont, &quot;Segoe WPC&quot;, &quot;Segoe UI&quot;, Ubuntu, &quot;Droid Sans&quot;, sans-serif, &quot;PingFang SC&quot;; font-size: 9px; font-weight: normal; text-rendering: geometricprecision;"><tspan>groups</tspan><tspan> = 1</tspan></text><text xml:space="preserve" x="6" y="91" style="font-family: -apple-system, BlinkMacSystemFont, &quot;Segoe WPC&quot;, &quot;Segoe UI&quot;, Ubuntu, &quot;Droid Sans&quot;, sans-serif, &quot;PingFang SC&quot;; font-size: 9px; font-weight: normal; text-rendering: geometricprecision;"><tspan>kernel_size</tspan><tspan> = 2, 2</tspan></text><text xml:space="preserve" x="6" y="104" style="font-family: -apple-system, BlinkMacSystemFont, &quot;Segoe WPC&quot;, &quot;Segoe UI&quot;, Ubuntu, &quot;Droid Sans&quot;, sans-serif, &quot;PingFang SC&quot;; font-size: 9px; font-weight: normal; text-rendering: geometricprecision;"><tspan>strides</tspan><tspan> = 1, 1</tspan></text><line class="node" x1="0" x2="111.203125" y1="0" y2="0" style="stroke: rgb(51, 51, 51); fill: none; stroke-width: 1px;"/></g><g class="node-item node-item-type node-item-type-activation" transform="translate(0,131)"><path d="M0,0h111.203125a0,0 0 0 1 0,0v16a5,5 0 0 1 -5,5h-101.203125a5,5 0 0 1 -5,-5v-16a0,0 0 0 1 0,0z" style="stroke: rgb(0, 0, 0); fill: rgb(112, 41, 33); stroke-width: 0;"/><text x="6" y="15" style="font-family: -apple-system, BlinkMacSystemFont, &quot;Segoe WPC&quot;, &quot;Segoe UI&quot;, Ubuntu, &quot;Droid Sans&quot;, sans-serif, &quot;PingFang SC&quot;; font-size: 11px; text-rendering: geometricprecision; fill: rgb(255, 255, 255);">ReLU</text></g><line class="node" x1="0" x2="111.203125" y1="131" y2="131" style="stroke: rgb(51, 51, 51); fill: none; stroke-width: 1px;"/><path class="node border" d="M5,0h101.203125a5,5 0 0 1 5,5v142a5,5 0 0 1 -5,5h-101.203125a5,5 0 0 1 -5,-5v-142a5,5 0 0 1 5,-5z" style="stroke: rgb(51, 51, 51); fill: none; stroke-width: 1px;"/></g><g id="node-name-Pooling-2" class="node graph-node" transform="translate(955.03125,55.9794921875)" style="opacity: 1;"><g class="node-item node-item-type node-item-type-pool" transform="translate(0,0)"><path d="M5,0h71.71875a5,5 0 0 1 5,5v16.041015625a0,0 0 0 1 0,0h-81.71875a0,0 0 0 1 0,0v-16.041015625a5,5 0 0 1 5,-5z" style="stroke: rgb(0, 0, 0); fill: rgb(51, 85, 51); stroke-width: 0;"/><text x="6" y="15" style="font-family: -apple-system, BlinkMacSystemFont, &quot;Segoe WPC&quot;, &quot;Segoe UI&quot;, Ubuntu, &quot;Droid Sans&quot;, sans-serif, &quot;PingFang SC&quot;; font-size: 11px; text-rendering: geometricprecision; fill: rgb(255, 255, 255);">Pooling-2</text><title>MaxPooling2D</title></g><g class="node-attribute" transform="translate(0,21.041015625)"><path d="M0,0h81.71875a0,0 0 0 1 0,0v27a5,5 0 0 1 -5,5h-71.71875a5,5 0 0 1 -5,-5v-27a0,0 0 0 1 0,0z" style="stroke: rgb(0, 0, 0); fill: rgb(255, 255, 255); stroke-width: 0;"/><text xml:space="preserve" x="6" y="13" style="font-family: -apple-system, BlinkMacSystemFont, &quot;Segoe WPC&quot;, &quot;Segoe UI&quot;, Ubuntu, &quot;Droid Sans&quot;, sans-serif, &quot;PingFang SC&quot;; font-size: 9px; font-weight: normal; text-rendering: geometricprecision;"><tspan>pool_size</tspan><tspan> = 2, 2</tspan></text><text xml:space="preserve" x="6" y="26" style="font-family: -apple-system, BlinkMacSystemFont, &quot;Segoe WPC&quot;, &quot;Segoe UI&quot;, Ubuntu, &quot;Droid Sans&quot;, sans-serif, &quot;PingFang SC&quot;; font-size: 9px; font-weight: normal; text-rendering: geometricprecision;"><tspan>strides</tspan><tspan> = 2, 2</tspan></text><line class="node" x1="0" x2="81.71875" y1="0" y2="0" style="stroke: rgb(51, 51, 51); fill: none; stroke-width: 1px;"/></g><path class="node border" d="M5,0h71.71875a5,5 0 0 1 5,5v43.041015625a5,5 0 0 1 -5,5h-71.71875a5,5 0 0 1 -5,-5v-43.041015625a5,5 0 0 1 5,-5z" style="stroke: rgb(51, 51, 51); fill: none; stroke-width: 1px;"/></g><g id="node-name-Convolution-3" class="node graph-node" transform="translate(1103.515625,6.5)" style="opacity: 1;"><g class="node-item node-item-type node-item-type-layer" transform="translate(0,0)"><path d="M5,0h105.640625a5,5 0 0 1 5,5v16a0,0 0 0 1 0,0h-115.640625a0,0 0 0 1 0,0v-16a5,5 0 0 1 5,-5z" style="stroke: rgb(0, 0, 0); fill: rgb(51, 85, 136); stroke-width: 0;"/><text x="6" y="15" style="font-family: -apple-system, BlinkMacSystemFont, &quot;Segoe WPC&quot;, &quot;Segoe UI&quot;, Ubuntu, &quot;Droid Sans&quot;, sans-serif, &quot;PingFang SC&quot;; font-size: 11px; text-rendering: geometricprecision; fill: rgb(255, 255, 255);">Convolution-3</text><title>Conv2D</title></g><g class="node-attribute" transform="translate(0,21)"><path d="M0,0h115.640625a0,0 0 0 1 0,0v110a0,0 0 0 1 0,0h-115.640625a0,0 0 0 1 0,0v-110a0,0 0 0 1 0,0z" style="stroke: rgb(0, 0, 0); fill: rgb(255, 255, 255); stroke-width: 0;"/><text id="initializer-Convolution-3/kernel:0" xml:space="preserve" x="6" y="13" style="font-family: -apple-system, BlinkMacSystemFont, &quot;Segoe WPC&quot;, &quot;Segoe UI&quot;, Ubuntu, &quot;Droid Sans&quot;, sans-serif, &quot;PingFang SC&quot;; font-size: 9px; font-weight: normal; text-rendering: geometricprecision;"><title>float32[2,2,64,128]</title><tspan style="font-weight: bold;">kernel</tspan><tspan>〈2×2×64×128〉</tspan></text><text id="initializer-Convolution-3/bias:0" xml:space="preserve" x="6" y="26" style="font-family: -apple-system, BlinkMacSystemFont, &quot;Segoe WPC&quot;, &quot;Segoe UI&quot;, Ubuntu, &quot;Droid Sans&quot;, sans-serif, &quot;PingFang SC&quot;; font-size: 9px; font-weight: normal; text-rendering: geometricprecision;"><title>float32[128]</title><tspan style="font-weight: bold;">bias</tspan><tspan>〈128〉</tspan></text><text xml:space="preserve" x="6" y="39" style="font-family: -apple-system, BlinkMacSystemFont, &quot;Segoe WPC&quot;, &quot;Segoe UI&quot;, Ubuntu, &quot;Droid Sans&quot;, sans-serif, &quot;PingFang SC&quot;; font-size: 9px; font-weight: normal; text-rendering: geometricprecision;"><tspan>activation</tspan><tspan> = relu</tspan></text><text xml:space="preserve" x="6" y="52" style="font-family: -apple-system, BlinkMacSystemFont, &quot;Segoe WPC&quot;, &quot;Segoe UI&quot;, Ubuntu, &quot;Droid Sans&quot;, sans-serif, &quot;PingFang SC&quot;; font-size: 9px; font-weight: normal; text-rendering: geometricprecision;"><tspan>dilation_rate</tspan><tspan> = 1, 1</tspan></text><text xml:space="preserve" x="6" y="65" style="font-family: -apple-system, BlinkMacSystemFont, &quot;Segoe WPC&quot;, &quot;Segoe UI&quot;, Ubuntu, &quot;Droid Sans&quot;, sans-serif, &quot;PingFang SC&quot;; font-size: 9px; font-weight: normal; text-rendering: geometricprecision;"><tspan>filters</tspan><tspan> = 128</tspan></text><text xml:space="preserve" x="6" y="78" style="font-family: -apple-system, BlinkMacSystemFont, &quot;Segoe WPC&quot;, &quot;Segoe UI&quot;, Ubuntu, &quot;Droid Sans&quot;, sans-serif, &quot;PingFang SC&quot;; font-size: 9px; font-weight: normal; text-rendering: geometricprecision;"><tspan>groups</tspan><tspan> = 1</tspan></text><text xml:space="preserve" x="6" y="91" style="font-family: -apple-system, BlinkMacSystemFont, &quot;Segoe WPC&quot;, &quot;Segoe UI&quot;, Ubuntu, &quot;Droid Sans&quot;, sans-serif, &quot;PingFang SC&quot;; font-size: 9px; font-weight: normal; text-rendering: geometricprecision;"><tspan>kernel_size</tspan><tspan> = 2, 2</tspan></text><text xml:space="preserve" x="6" y="104" style="font-family: -apple-system, BlinkMacSystemFont, &quot;Segoe WPC&quot;, &quot;Segoe UI&quot;, Ubuntu, &quot;Droid Sans&quot;, sans-serif, &quot;PingFang SC&quot;; font-size: 9px; font-weight: normal; text-rendering: geometricprecision;"><tspan>strides</tspan><tspan> = 1, 1</tspan></text><line class="node" x1="0" x2="115.640625" y1="0" y2="0" style="stroke: rgb(51, 51, 51); fill: none; stroke-width: 1px;"/></g><g class="node-item node-item-type node-item-type-activation" transform="translate(0,131)"><path d="M0,0h115.640625a0,0 0 0 1 0,0v16a5,5 0 0 1 -5,5h-105.640625a5,5 0 0 1 -5,-5v-16a0,0 0 0 1 0,0z" style="stroke: rgb(0, 0, 0); fill: rgb(112, 41, 33); stroke-width: 0;"/><text x="6" y="15" style="font-family: -apple-system, BlinkMacSystemFont, &quot;Segoe WPC&quot;, &quot;Segoe UI&quot;, Ubuntu, &quot;Droid Sans&quot;, sans-serif, &quot;PingFang SC&quot;; font-size: 11px; text-rendering: geometricprecision; fill: rgb(255, 255, 255);">ReLU</text></g><line class="node" x1="0" x2="115.640625" y1="131" y2="131" style="stroke: rgb(51, 51, 51); fill: none; stroke-width: 1px;"/><path class="node border" d="M5,0h105.640625a5,5 0 0 1 5,5v142a5,5 0 0 1 -5,5h-105.640625a5,5 0 0 1 -5,-5v-142a5,5 0 0 1 5,-5z" style="stroke: rgb(51, 51, 51); fill: none; stroke-width: 1px;"/></g><g id="node-name-Pooling-3" class="node graph-node" transform="translate(1307.71875,55.9794921875)" style="opacity: 1;"><g class="node-item node-item-type node-item-type-pool" transform="translate(0,0)"><path d="M5,0h71.71875a5,5 0 0 1 5,5v16.041015625a0,0 0 0 1 0,0h-81.71875a0,0 0 0 1 0,0v-16.041015625a5,5 0 0 1 5,-5z" style="stroke: rgb(0, 0, 0); fill: rgb(51, 85, 51); stroke-width: 0;"/><text x="6" y="15" style="font-family: -apple-system, BlinkMacSystemFont, &quot;Segoe WPC&quot;, &quot;Segoe UI&quot;, Ubuntu, &quot;Droid Sans&quot;, sans-serif, &quot;PingFang SC&quot;; font-size: 11px; text-rendering: geometricprecision; fill: rgb(255, 255, 255);">Pooling-3</text><title>MaxPooling2D</title></g><g class="node-attribute" transform="translate(0,21.041015625)"><path d="M0,0h81.71875a0,0 0 0 1 0,0v27a5,5 0 0 1 -5,5h-71.71875a5,5 0 0 1 -5,-5v-27a0,0 0 0 1 0,0z" style="stroke: rgb(0, 0, 0); fill: rgb(255, 255, 255); stroke-width: 0;"/><text xml:space="preserve" x="6" y="13" style="font-family: -apple-system, BlinkMacSystemFont, &quot;Segoe WPC&quot;, &quot;Segoe UI&quot;, Ubuntu, &quot;Droid Sans&quot;, sans-serif, &quot;PingFang SC&quot;; font-size: 9px; font-weight: normal; text-rendering: geometricprecision;"><tspan>pool_size</tspan><tspan> = 2, 2</tspan></text><text xml:space="preserve" x="6" y="26" style="font-family: -apple-system, BlinkMacSystemFont, &quot;Segoe WPC&quot;, &quot;Segoe UI&quot;, Ubuntu, &quot;Droid Sans&quot;, sans-serif, &quot;PingFang SC&quot;; font-size: 9px; font-weight: normal; text-rendering: geometricprecision;"><tspan>strides</tspan><tspan> = 2, 2</tspan></text><line class="node" x1="0" x2="81.71875" y1="0" y2="0" style="stroke: rgb(51, 51, 51); fill: none; stroke-width: 1px;"/></g><path class="node border" d="M5,0h71.71875a5,5 0 0 1 5,5v43.041015625a5,5 0 0 1 -5,5h-71.71875a5,5 0 0 1 -5,-5v-43.041015625a5,5 0 0 1 5,-5z" style="stroke: rgb(51, 51, 51); fill: none; stroke-width: 1px;"/></g><g id="node-name-flatten" class="node graph-node" transform="translate(1456.4375,72)" style="opacity: 1;"><g class="node-item node-item-type node-item-type-shape" transform="translate(0,0)"><path d="M5,0h37.90625a5,5 0 0 1 5,5v11a5,5 0 0 1 -5,5h-37.90625a5,5 0 0 1 -5,-5v-11a5,5 0 0 1 5,-5z" style="stroke: rgb(0, 0, 0); fill: rgb(108, 79, 71); stroke-width: 0;"/><text x="6" y="15" style="font-family: -apple-system, BlinkMacSystemFont, &quot;Segoe WPC&quot;, &quot;Segoe UI&quot;, Ubuntu, &quot;Droid Sans&quot;, sans-serif, &quot;PingFang SC&quot;; font-size: 11px; text-rendering: geometricprecision; fill: rgb(255, 255, 255);">flatten</text><title>Flatten</title></g><path class="node border" d="M5,0h37.90625a5,5 0 0 1 5,5v11a5,5 0 0 1 -5,5h-37.90625a5,5 0 0 1 -5,-5v-11a5,5 0 0 1 5,-5z" style="stroke: rgb(51, 51, 51); fill: none; stroke-width: 1px;"/></g><g id="node-name-dense" class="node graph-node" transform="translate(1555.578125,19.5)" style="opacity: 1;"><g class="node-item node-item-type node-item-type-layer" transform="translate(0,0)"><path d="M5,0h98.375a5,5 0 0 1 5,5v16a0,0 0 0 1 0,0h-108.375a0,0 0 0 1 0,0v-16a5,5 0 0 1 5,-5z" style="stroke: rgb(0, 0, 0); fill: rgb(51, 85, 136); stroke-width: 0;"/><text x="6" y="15" style="font-family: -apple-system, BlinkMacSystemFont, &quot;Segoe WPC&quot;, &quot;Segoe UI&quot;, Ubuntu, &quot;Droid Sans&quot;, sans-serif, &quot;PingFang SC&quot;; font-size: 11px; text-rendering: geometricprecision; fill: rgb(255, 255, 255);">dense</text><title>Dense</title></g><g class="node-attribute" transform="translate(0,21)"><path d="M0,0h108.375a0,0 0 0 1 0,0v84a0,0 0 0 1 0,0h-108.375a0,0 0 0 1 0,0v-84a0,0 0 0 1 0,0z" style="stroke: rgb(0, 0, 0); fill: rgb(255, 255, 255); stroke-width: 0;"/><text id="initializer-dense/kernel:0" xml:space="preserve" x="6" y="13" style="font-family: -apple-system, BlinkMacSystemFont, &quot;Segoe WPC&quot;, &quot;Segoe UI&quot;, Ubuntu, &quot;Droid Sans&quot;, sans-serif, &quot;PingFang SC&quot;; font-size: 9px; font-weight: normal; text-rendering: geometricprecision;"><title>float32[93312,128]</title><tspan style="font-weight: bold;">kernel</tspan><tspan>〈93312×128〉</tspan></text><text id="initializer-dense/bias:0" xml:space="preserve" x="6" y="26" style="font-family: -apple-system, BlinkMacSystemFont, &quot;Segoe WPC&quot;, &quot;Segoe UI&quot;, Ubuntu, &quot;Droid Sans&quot;, sans-serif, &quot;PingFang SC&quot;; font-size: 9px; font-weight: normal; text-rendering: geometricprecision;"><title>float32[128]</title><tspan style="font-weight: bold;">bias</tspan><tspan>〈128〉</tspan></text><text xml:space="preserve" x="6" y="39" style="font-family: -apple-system, BlinkMacSystemFont, &quot;Segoe WPC&quot;, &quot;Segoe UI&quot;, Ubuntu, &quot;Droid Sans&quot;, sans-serif, &quot;PingFang SC&quot;; font-size: 9px; font-weight: normal; text-rendering: geometricprecision;"><tspan>activation</tspan><tspan> = relu</tspan></text><text xml:space="preserve" x="6" y="52" style="font-family: -apple-system, BlinkMacSystemFont, &quot;Segoe WPC&quot;, &quot;Segoe UI&quot;, Ubuntu, &quot;Droid Sans&quot;, sans-serif, &quot;PingFang SC&quot;; font-size: 9px; font-weight: normal; text-rendering: geometricprecision;"><tspan>bias_constraint</tspan><tspan> = </tspan></text><text xml:space="preserve" x="6" y="65" style="font-family: -apple-system, BlinkMacSystemFont, &quot;Segoe WPC&quot;, &quot;Segoe UI&quot;, Ubuntu, &quot;Droid Sans&quot;, sans-serif, &quot;PingFang SC&quot;; font-size: 9px; font-weight: normal; text-rendering: geometricprecision;"><tspan>kernel_constraint</tspan><tspan> = </tspan></text><text xml:space="preserve" x="6" y="78" style="font-family: -apple-system, BlinkMacSystemFont, &quot;Segoe WPC&quot;, &quot;Segoe UI&quot;, Ubuntu, &quot;Droid Sans&quot;, sans-serif, &quot;PingFang SC&quot;; font-size: 9px; font-weight: normal; text-rendering: geometricprecision;"><tspan>units</tspan><tspan> = 128</tspan></text><line class="node" x1="0" x2="108.375" y1="0" y2="0" style="stroke: rgb(51, 51, 51); fill: none; stroke-width: 1px;"/></g><g class="node-item node-item-type node-item-type-activation" transform="translate(0,105)"><path d="M0,0h108.375a0,0 0 0 1 0,0v16a5,5 0 0 1 -5,5h-98.375a5,5 0 0 1 -5,-5v-16a0,0 0 0 1 0,0z" style="stroke: rgb(0, 0, 0); fill: rgb(112, 41, 33); stroke-width: 0;"/><text x="6" y="15" style="font-family: -apple-system, BlinkMacSystemFont, &quot;Segoe WPC&quot;, &quot;Segoe UI&quot;, Ubuntu, &quot;Droid Sans&quot;, sans-serif, &quot;PingFang SC&quot;; font-size: 11px; text-rendering: geometricprecision; fill: rgb(255, 255, 255);">ReLU</text></g><line class="node" x1="0" x2="108.375" y1="105" y2="105" style="stroke: rgb(51, 51, 51); fill: none; stroke-width: 1px;"/><path class="node border" d="M5,0h98.375a5,5 0 0 1 5,5v116a5,5 0 0 1 -5,5h-98.375a5,5 0 0 1 -5,-5v-116a5,5 0 0 1 5,-5z" style="stroke: rgb(51, 51, 51); fill: none; stroke-width: 1px;"/></g><g id="node-name-dropout" class="node graph-node" transform="translate(1713.1875,49.5)" style="opacity: 1;"><g class="node-item node-item-type node-item-type-dropout" transform="translate(0,0)"><path d="M5,0h65.625a5,5 0 0 1 5,5v16a0,0 0 0 1 0,0h-75.625a0,0 0 0 1 0,0v-16a5,5 0 0 1 5,-5z" style="stroke: rgb(0, 0, 0); fill: rgb(69, 71, 112); stroke-width: 0;"/><text x="6" y="15" style="font-family: -apple-system, BlinkMacSystemFont, &quot;Segoe WPC&quot;, &quot;Segoe UI&quot;, Ubuntu, &quot;Droid Sans&quot;, sans-serif, &quot;PingFang SC&quot;; font-size: 11px; text-rendering: geometricprecision; fill: rgb(255, 255, 255);">dropout</text><title>Dropout</title></g><g class="node-attribute" transform="translate(0,21)"><path d="M0,0h75.625a0,0 0 0 1 0,0v40a5,5 0 0 1 -5,5h-65.625a5,5 0 0 1 -5,-5v-40a0,0 0 0 1 0,0z" style="stroke: rgb(0, 0, 0); fill: rgb(255, 255, 255); stroke-width: 0;"/><text xml:space="preserve" x="6" y="13" style="font-family: -apple-system, BlinkMacSystemFont, &quot;Segoe WPC&quot;, &quot;Segoe UI&quot;, Ubuntu, &quot;Droid Sans&quot;, sans-serif, &quot;PingFang SC&quot;; font-size: 9px; font-weight: normal; text-rendering: geometricprecision;"><tspan>noise_shape</tspan><tspan> = </tspan></text><text xml:space="preserve" x="6" y="26" style="font-family: -apple-system, BlinkMacSystemFont, &quot;Segoe WPC&quot;, &quot;Segoe UI&quot;, Ubuntu, &quot;Droid Sans&quot;, sans-serif, &quot;PingFang SC&quot;; font-size: 9px; font-weight: normal; text-rendering: geometricprecision;"><tspan>rate</tspan><tspan> = 0.25</tspan></text><text xml:space="preserve" x="6" y="39" style="font-family: -apple-system, BlinkMacSystemFont, &quot;Segoe WPC&quot;, &quot;Segoe UI&quot;, Ubuntu, &quot;Droid Sans&quot;, sans-serif, &quot;PingFang SC&quot;; font-size: 9px; font-weight: normal; text-rendering: geometricprecision;"><tspan>seed</tspan><tspan> = </tspan></text><line class="node" x1="0" x2="75.625" y1="0" y2="0" style="stroke: rgb(51, 51, 51); fill: none; stroke-width: 1px;"/></g><path class="node border" d="M5,0h65.625a5,5 0 0 1 5,5v56a5,5 0 0 1 -5,5h-65.625a5,5 0 0 1 -5,-5v-56a5,5 0 0 1 5,-5z" style="stroke: rgb(51, 51, 51); fill: none; stroke-width: 1px;"/></g><g id="node-name-dense_1" class="node graph-node" transform="translate(1846.828125,19.5)" style="opacity: 1;"><g class="node-item node-item-type node-item-type-layer" transform="translate(0,0)"><path d="M5,0h91.46875a5,5 0 0 1 5,5v16a0,0 0 0 1 0,0h-101.46875a0,0 0 0 1 0,0v-16a5,5 0 0 1 5,-5z" style="stroke: rgb(0, 0, 0); fill: rgb(51, 85, 136); stroke-width: 0;"/><text x="6" y="15" style="font-family: -apple-system, BlinkMacSystemFont, &quot;Segoe WPC&quot;, &quot;Segoe UI&quot;, Ubuntu, &quot;Droid Sans&quot;, sans-serif, &quot;PingFang SC&quot;; font-size: 11px; text-rendering: geometricprecision; fill: rgb(255, 255, 255);">dense_1</text><title>Dense</title></g><g class="node-attribute" transform="translate(0,21)"><path d="M0,0h101.46875a0,0 0 0 1 0,0v84a0,0 0 0 1 0,0h-101.46875a0,0 0 0 1 0,0v-84a0,0 0 0 1 0,0z" style="stroke: rgb(0, 0, 0); fill: rgb(255, 255, 255); stroke-width: 0;"/><text id="initializer-dense_1/kernel:0" xml:space="preserve" x="6" y="13" style="font-family: -apple-system, BlinkMacSystemFont, &quot;Segoe WPC&quot;, &quot;Segoe UI&quot;, Ubuntu, &quot;Droid Sans&quot;, sans-serif, &quot;PingFang SC&quot;; font-size: 9px; font-weight: normal; text-rendering: geometricprecision;"><title>float32[128,9]</title><tspan style="font-weight: bold;">kernel</tspan><tspan>〈128×9〉</tspan></text><text id="initializer-dense_1/bias:0" xml:space="preserve" x="6" y="26" style="font-family: -apple-system, BlinkMacSystemFont, &quot;Segoe WPC&quot;, &quot;Segoe UI&quot;, Ubuntu, &quot;Droid Sans&quot;, sans-serif, &quot;PingFang SC&quot;; font-size: 9px; font-weight: normal; text-rendering: geometricprecision;"><title>float32[9]</title><tspan style="font-weight: bold;">bias</tspan><tspan>〈9〉</tspan></text><text xml:space="preserve" x="6" y="39" style="font-family: -apple-system, BlinkMacSystemFont, &quot;Segoe WPC&quot;, &quot;Segoe UI&quot;, Ubuntu, &quot;Droid Sans&quot;, sans-serif, &quot;PingFang SC&quot;; font-size: 9px; font-weight: normal; text-rendering: geometricprecision;"><tspan>activation</tspan><tspan> = softmax</tspan></text><text xml:space="preserve" x="6" y="52" style="font-family: -apple-system, BlinkMacSystemFont, &quot;Segoe WPC&quot;, &quot;Segoe UI&quot;, Ubuntu, &quot;Droid Sans&quot;, sans-serif, &quot;PingFang SC&quot;; font-size: 9px; font-weight: normal; text-rendering: geometricprecision;"><tspan>bias_constraint</tspan><tspan> = </tspan></text><text xml:space="preserve" x="6" y="65" style="font-family: -apple-system, BlinkMacSystemFont, &quot;Segoe WPC&quot;, &quot;Segoe UI&quot;, Ubuntu, &quot;Droid Sans&quot;, sans-serif, &quot;PingFang SC&quot;; font-size: 9px; font-weight: normal; text-rendering: geometricprecision;"><tspan>kernel_constraint</tspan><tspan> = </tspan></text><text xml:space="preserve" x="6" y="78" style="font-family: -apple-system, BlinkMacSystemFont, &quot;Segoe WPC&quot;, &quot;Segoe UI&quot;, Ubuntu, &quot;Droid Sans&quot;, sans-serif, &quot;PingFang SC&quot;; font-size: 9px; font-weight: normal; text-rendering: geometricprecision;"><tspan>units</tspan><tspan> = 9</tspan></text><line class="node" x1="0" x2="101.46875" y1="0" y2="0" style="stroke: rgb(51, 51, 51); fill: none; stroke-width: 1px;"/></g><g class="node-item node-item-type node-item-type-activation" transform="translate(0,105)"><path d="M0,0h101.46875a0,0 0 0 1 0,0v16a5,5 0 0 1 -5,5h-91.46875a5,5 0 0 1 -5,-5v-16a0,0 0 0 1 0,0z" style="stroke: rgb(0, 0, 0); fill: rgb(112, 41, 33); stroke-width: 0;"/><text x="6" y="15" style="font-family: -apple-system, BlinkMacSystemFont, &quot;Segoe WPC&quot;, &quot;Segoe UI&quot;, Ubuntu, &quot;Droid Sans&quot;, sans-serif, &quot;PingFang SC&quot;; font-size: 11px; text-rendering: geometricprecision; fill: rgb(255, 255, 255);">Softmax</text></g><line class="node" x1="0" x2="101.46875" y1="105" y2="105" style="stroke: rgb(51, 51, 51); fill: none; stroke-width: 1px;"/><path class="node border" d="M5,0h91.46875a5,5 0 0 1 5,5v116a5,5 0 0 1 -5,5h-91.46875a5,5 0 0 1 -5,-5v-116a5,5 0 0 1 5,-5z" style="stroke: rgb(51, 51, 51); fill: none; stroke-width: 1px;"/></g><g class="node" transform="translate(2006.921875,72)" style="opacity: 1;"><g class="node-item graph-item-output" transform="translate(0,0)"><path d="M5,0h46.03125a5,5 0 0 1 5,5v11a5,5 0 0 1 -5,5h-46.03125a5,5 0 0 1 -5,-5v-11a5,5 0 0 1 5,-5z" style="stroke: rgb(0, 0, 0); fill: rgb(238, 238, 238); stroke-width: 0;"/><text x="6" y="15" style="font-family: -apple-system, BlinkMacSystemFont, &quot;Segoe WPC&quot;, &quot;Segoe UI&quot;, Ubuntu, &quot;Droid Sans&quot;, sans-serif, &quot;PingFang SC&quot;; font-size: 11px; text-rendering: geometricprecision;">dense_1</text></g><path class="node border" d="M5,0h46.03125a5,5 0 0 1 5,5v11a5,5 0 0 1 -5,5h-46.03125a5,5 0 0 1 -5,-5v-11a5,5 0 0 1 5,-5z" style="stroke: rgb(51, 51, 51); fill: none; stroke-width: 1px;"/></g></g></g></svg>